<svg width="29" height="28" viewBox="0 0 29 28" fill="none" xmlns="http://www.w3.org/2000/svg">
<path fill-rule="evenodd" clip-rule="evenodd" d="M18.9634 0.770559C17.4477 1.19421 16.2525 2.432 15.5905 4.26349C15.247 5.21393 15.0754 6.40105 15.1538 7.28337C15.302 8.94877 16.1392 10.2598 17.3539 10.7284C17.7118 10.8665 17.9436 10.9116 18.2645 10.9056C18.6 10.8994 18.7951 10.8566 19.1546 10.7105C20.8997 10.0012 22.1971 8.1623 22.5327 5.92238C22.6299 5.27352 22.6143 4.2113 22.4983 3.57842C22.3027 2.51156 21.6491 1.52041 20.8323 1.05221C20.4119 0.811189 20.0498 0.713618 19.5536 0.70772C19.2385 0.703945 19.1791 0.710265 18.9634 0.770559ZM8.93006 0.986367C8.41736 1.08681 7.95921 1.33668 7.51042 1.76058C6.84563 2.38853 6.43866 3.15597 6.25865 4.12121C6.19233 4.47675 6.14267 5.41204 6.16907 5.80789C6.30404 7.83217 7.22423 9.56793 8.64355 10.4756C8.90457 10.6425 9.39041 10.8717 9.67541 10.9623C9.87382 11.0254 9.91059 11.0289 10.2996 11.0219C10.675 11.0152 10.7337 11.008 10.9403 10.9438C12.0674 10.5936 12.8814 9.66999 13.2858 8.28246C13.4109 7.85332 13.4579 7.57257 13.4878 7.0768C13.585 5.46046 13.1421 3.83898 12.2791 2.65198C12.0479 2.33396 11.5517 1.83963 11.252 1.62874C10.9762 1.4346 10.4665 1.18119 10.1539 1.08266C9.71979 0.945871 9.3038 0.913143 8.93006 0.986367ZM25.4915 8.64251C24.3249 8.78324 23.1661 9.48674 22.3196 10.5681C21.7372 11.312 21.2678 12.2801 21.0683 13.1485C20.9318 13.7424 20.8897 14.0415 20.8759 14.5135C20.8604 15.0465 20.8969 15.3384 21.0373 15.8014C21.4231 17.0743 22.3914 17.8908 23.4801 17.8613C24.2676 17.84 25.0836 17.5331 25.8235 16.9798C26.9571 16.1322 27.8562 14.6531 28.1613 13.134C28.24 12.7419 28.3041 12.0616 28.2934 11.7327C28.2591 10.6833 27.8119 9.69819 27.1199 9.14743C26.6436 8.76841 26.0286 8.57773 25.4915 8.64251ZM2.68193 9.54592C1.81706 9.69882 1.10466 10.1884 0.701641 10.9067C0.55954 11.16 0.417096 11.5807 0.328735 12.0079C0.241771 12.4285 0.209871 13.2613 0.263677 13.7069C0.547136 16.0544 2.10653 17.9651 4.16197 18.4832C4.42202 18.5488 4.49731 18.5573 4.7952 18.5542C5.17191 18.5504 5.34267 18.515 5.6831 18.3701C6.24814 18.1295 6.83682 17.5553 7.11592 16.9726C7.26947 16.6521 7.38185 16.2635 7.45412 15.8037C7.50283 15.4937 7.51759 14.7744 7.4823 14.4322C7.30257 12.6901 6.35498 11.0884 4.95467 10.1598C4.71379 10 4.27214 9.76573 4.05106 9.68039C3.64941 9.52535 3.10225 9.47161 2.68193 9.54592ZM13.8723 14.6772C12.082 14.898 10.347 15.7578 9.03168 17.0759C8.39073 17.7182 7.41659 19.0707 6.75221 20.2406C6.19919 21.2145 5.70467 22.3826 5.44499 23.3284C5.38866 23.5335 5.30435 23.8357 5.25764 23.9998C4.9796 24.9766 5.2101 25.9531 5.89462 26.6982C6.20748 27.0388 6.69819 27.3248 7.17484 27.4444C7.40348 27.5017 7.46244 27.5062 7.91177 27.4998C8.81779 27.4869 9.3917 27.3431 11.0898 26.7033C12.3466 26.2298 12.8601 26.0666 13.4158 25.9638C13.7561 25.9008 14.568 25.8112 14.8326 25.8075C15.1357 25.8031 15.6395 25.8563 15.993 25.9298C16.6247 26.0613 16.9407 26.1714 18.9544 26.9624C19.83 27.3063 20.206 27.3901 20.834 27.3811C21.5218 27.3713 22.1264 27.1955 22.63 26.859C22.9395 26.6521 23.2599 26.2981 23.4351 25.9695C23.7085 25.4566 23.7694 24.5454 23.5845 23.7332C23.3925 22.8895 22.8885 21.7191 22.3306 20.8211C20.7501 18.2771 19.6423 16.9403 18.2775 15.9303C17.297 15.2047 16.5097 14.8574 15.4865 14.6989C15.1412 14.6454 14.2294 14.6332 13.8723 14.6772Z" fill="#354E99"/>
</svg>
