<svg width="1166" height="786" viewBox="0 0 1166 786" fill="none" xmlns="http://www.w3.org/2000/svg">
<path fill-rule="evenodd" clip-rule="evenodd" d="M226.321 639.465C213.966 600.45 172.322 578.837 133.306 591.192C94.2903 603.547 72.6776 645.191 85.0325 684.207C97.3875 723.222 139.032 744.835 178.047 732.48C217.063 720.125 238.676 678.481 226.321 639.465ZM237.855 635.813C223.482 590.427 175.039 565.286 129.654 579.658C84.2681 594.03 59.1267 642.473 73.4988 687.859C87.8709 733.245 136.314 758.386 181.7 744.014C227.085 729.642 252.227 681.199 237.855 635.813ZM152.181 689.571L182.665 656.221C184.236 654.502 183.357 651.727 181.083 651.226L136.959 641.502C134.685 641.001 132.721 643.149 133.424 645.368L147.065 688.444C147.768 690.664 150.61 691.29 152.181 689.571ZM135.531 692.096C139.046 703.195 153.256 706.327 161.111 697.734L191.595 664.383C199.449 655.79 195.056 641.917 183.687 639.412L139.563 629.687C128.194 627.181 118.376 637.922 121.891 649.021L135.531 692.096Z" fill="#F36B1E" fill-opacity="0.5"/>
<path fill-rule="evenodd" clip-rule="evenodd" d="M1123.96 115.999L1119.4 107.494L1124.74 104.624C1126.38 103.744 1128.44 104.391 1129.34 106.068L1132.28 111.536L1123.96 115.999ZM1114.65 110.044L1147.91 172.016L1106.34 194.331L1073.07 132.359L1114.65 110.044ZM1152.66 169.465L1158.01 166.596C1159.65 165.716 1160.25 163.642 1159.35 161.964L1156.41 156.496L1148.1 160.959L1152.66 169.465ZM1098.85 204.61C1094.59 206.899 1089.23 205.218 1086.89 200.856L1056.89 144.96C1054.55 140.598 1056.1 135.207 1060.37 132.918L1122.13 99.764C1126.4 97.4752 1131.75 99.1559 1134.09 103.518L1164.1 159.414C1166.44 163.776 1164.88 169.168 1160.62 171.457L1098.85 204.61ZM1153.8 151.636L1149.24 143.13L1140.92 147.593L1145.49 156.099L1153.8 151.636ZM1131.14 129.366L1126.57 120.86L1134.89 116.397L1139.45 124.903L1131.14 129.366ZM1086.1 187.977L1094.41 183.514L1089.85 175.008L1081.53 179.472L1086.1 187.977ZM1101.59 196.881L1097.02 188.375L1088.71 192.838L1091.64 198.306C1092.54 199.984 1094.6 200.63 1096.24 199.75L1101.59 196.881ZM1142.06 129.763L1146.63 138.269L1138.31 142.732L1133.75 134.226L1142.06 129.763ZM1078.92 174.611L1087.24 170.148L1082.67 161.642L1074.36 166.105L1078.92 174.611ZM1071.75 161.245L1080.06 156.782L1075.5 148.276L1067.18 152.739L1071.75 161.245ZM1064.57 147.878L1072.89 143.415L1068.32 134.909L1062.98 137.778C1061.34 138.659 1060.74 140.732 1061.64 142.41L1064.57 147.878Z" fill="#E55CDF" fill-opacity="0.5"/>
<path d="M959.621 453.019C974.894 447.72 990.176 460.94 987.13 476.816L982.361 501.67C979.314 517.546 960.224 524.171 947.998 513.595L928.858 497.038C916.632 486.461 920.44 466.616 935.712 461.316L959.621 453.019Z" stroke="#A394FF" stroke-opacity="0.96" stroke-width="10"/>
<path fill-rule="evenodd" clip-rule="evenodd" d="M259.324 506.43C237.409 473.939 205.313 477.432 192.194 483.056C189.984 484.004 187.425 482.98 186.477 480.771C185.529 478.561 186.553 476.001 188.763 475.053C204.413 468.343 241.575 464.543 266.543 501.561C267.887 503.555 267.361 506.261 265.368 507.605C263.374 508.95 260.668 508.424 259.324 506.43Z" fill="#FFF500" fill-opacity="0.5"/>
<path fill-rule="evenodd" clip-rule="evenodd" d="M238.425 514.082C226.749 498.224 210.387 499.532 203.952 501.968C201.704 502.82 199.19 501.687 198.339 499.438C197.487 497.19 198.62 494.677 200.869 493.825C209.815 490.437 230.794 489.032 245.437 508.919C246.863 510.856 246.449 513.581 244.513 515.007C242.576 516.433 239.851 516.019 238.425 514.082Z" fill="#FFF500" fill-opacity="0.5"/>
<path fill-rule="evenodd" clip-rule="evenodd" d="M107.904 117.875C110.677 111.304 109.492 103.641 104.559 96.2503C101.999 92.4148 98.0627 88.5425 94.5448 86.3994C87.9047 82.3543 80.6074 81.7406 75.3694 84.7866C73.8259 85.6842 72.9916 86.3871 72.092 87.5483C71.1515 88.7622 70.7506 89.5755 70.263 91.2592C67.8964 99.4324 71.0315 109.111 78.426 116.459C80.5681 118.587 84.5766 121.449 87.2715 122.773C91.8143 125.005 97.3905 125.396 101.484 123.768C103.591 122.93 104.995 121.906 106.443 120.152C107.362 119.039 107.509 118.809 107.904 117.875ZM135.922 81.4907C137.02 79.3859 137.404 77.0654 137.111 74.3004C136.677 70.2044 134.983 66.6451 131.898 63.3522C130.762 62.1393 127.414 59.3936 125.862 58.4007C117.92 53.323 108.799 51.8388 101.335 54.4092C99.9623 54.8818 97.7115 55.9856 96.5545 56.7533C95.7492 57.2879 95.6304 57.4094 94.5391 58.8162C93.4858 60.1739 93.3438 60.4031 92.9899 61.3162C91.0591 66.2987 92.1672 71.7387 96.1829 76.992C97.4249 78.6168 98.3375 79.5555 100.102 81.0234C105.854 85.8089 113.177 88.6819 120.085 88.8634C121.936 88.912 125.206 88.4996 126.854 88.0096C128.371 87.5586 130.781 86.4365 132.047 85.5919C133.804 84.419 135.121 83.025 135.922 81.4907ZM59.7758 119.544C62.6018 114.996 63.3058 108.93 61.7023 102.941C60.5993 98.8202 58.3354 94.487 55.6681 91.3906C53.8438 89.2729 52.8487 88.3011 51.1271 86.9557C49.1828 85.4366 47.9887 84.7654 45.8578 83.9946C39.9994 81.8753 34.1708 83.0869 31.1533 87.0516C28.9705 89.9192 27.7716 93.6732 27.7107 97.8319C27.617 104.204 30.5536 111.473 35.346 116.733C36.5828 118.09 38.9371 120.187 40.1955 121.052C44.2096 123.812 49.1704 124.922 53.2137 123.966C55.9962 123.308 58.4746 121.637 59.7758 119.544ZM121.93 35.6958C123.844 32.1908 124.064 28.3051 122.541 24.8946C122.004 23.6921 120.844 22.0288 119.503 20.5404C118.184 19.075 115.168 16.6742 113.35 15.6424C103.776 10.2068 92.1668 10.5225 84.3284 16.4317C83.3367 17.1793 83.0889 17.4247 82.2444 18.4956C81.1764 19.8498 80.818 20.5562 80.381 22.1687C79.6555 24.845 80.1069 28.5217 81.4797 31.1177C82.2346 32.5456 83.3615 34.0135 84.8699 35.5342C85.8866 36.559 88.5284 38.5872 89.9068 39.4011C96.924 43.5442 105.623 44.5625 113.111 42.1175C114.399 41.6969 116.542 40.7648 117.495 40.2105C119.228 39.2035 121 37.3993 121.93 35.6958ZM70.6358 61.5227C74.9548 54.5302 76.7309 45.9797 75.5908 37.668C75.0353 33.6177 72.7868 26.4285 70.3295 20.8455C68.2842 16.1983 65.3461 11.2264 62.5627 7.70275C61.9591 6.93841 61.0738 5.80795 60.5955 5.19054C57.7493 1.51622 53.4431 -0.34326 48.6963 0.0523531C46.5266 0.233101 44.0497 1.19811 42.2342 2.57007C41.3633 3.22814 41.1774 3.42627 39.9104 5.0467C37.3558 8.3141 36.2438 10.7563 33.7529 18.5706C31.9093 24.3544 31.0433 26.6344 29.8305 28.899C29.0878 30.286 27.0898 33.428 26.3436 34.3824C25.4891 35.4754 23.8437 37.1265 22.5538 38.1856C20.2483 40.0782 18.9296 40.9028 10.1934 45.9139C6.39445 48.0929 5.00191 49.2041 3.23128 51.4689C1.29186 53.9494 0.21078 56.5892 0.0201819 59.3096C-0.096974 60.9818 0.303432 63.0967 1.02636 64.6241C2.155 67.0082 5.37995 69.7277 8.94195 71.2987C12.6421 72.9306 18.4572 74.3471 23.4109 74.8231C37.4442 76.1715 45.615 75.8907 53.3047 73.7958C58.8291 72.2908 62.3869 70.4363 65.9177 67.2214C67.1092 66.1366 69.7743 62.9175 70.6358 61.5227Z" fill="#FFD80C"/>
<path fill-rule="evenodd" clip-rule="evenodd" d="M981.769 590.543C976.199 600.243 976.583 612.399 982.853 624.846C986.107 631.305 991.497 638.084 996.565 642.091C1006.13 649.654 1017.38 652.001 1026.11 648.258C1028.68 647.155 1030.12 646.219 1031.74 644.583C1033.43 642.873 1034.21 641.683 1035.29 639.155C1040.54 626.882 1037.5 611.217 1027.39 598.367C1024.46 594.645 1018.77 589.426 1014.82 586.851C1008.18 582.51 999.57 580.839 992.887 582.593C989.447 583.495 987.065 584.821 984.477 587.276C982.834 588.834 982.561 589.163 981.769 590.543ZM931.214 641.844C929.103 644.912 928.063 648.451 927.992 652.812C927.885 659.271 929.845 665.135 934.02 670.85C935.557 672.955 940.245 677.867 942.473 679.709C953.869 689.128 967.785 693.178 979.895 690.599C982.123 690.125 985.837 688.836 987.785 687.861C989.14 687.182 989.348 687.016 991.316 685.034C993.214 683.121 993.479 682.791 994.204 681.437C998.16 674.048 997.472 665.368 992.222 656.424C990.598 653.658 989.356 652.023 986.889 649.401C978.847 640.854 967.994 634.985 957.273 633.386C954.401 632.957 949.232 632.976 946.573 633.424C944.125 633.837 940.16 635.125 938.028 636.198C935.069 637.689 932.752 639.608 931.214 641.844ZM1057.01 597.121C1051.75 603.662 1049.49 612.971 1050.85 622.601C1051.78 629.226 1054.48 636.404 1058.04 641.733C1060.48 645.377 1061.84 647.08 1064.26 649.502C1067 652.238 1068.73 653.511 1071.9 655.117C1080.62 659.533 1089.92 658.758 1095.38 653.161C1099.32 649.113 1101.91 643.497 1102.79 637.035C1104.15 627.133 1100.97 615.257 1094.51 606.154C1092.84 603.805 1089.58 600.091 1087.78 598.505C1082.06 593.444 1074.55 590.77 1068.07 591.487C1063.61 591.981 1059.44 594.109 1057.01 597.121ZM944.265 715.805C940.617 720.897 939.534 726.905 941.255 732.504C941.861 734.479 943.351 737.29 945.154 739.862C946.929 742.395 951.166 746.708 953.799 748.66C967.668 758.948 985.802 760.67 999.131 752.965C1000.82 751.99 1001.25 751.655 1002.77 750.149C1004.69 748.244 1005.38 747.213 1006.37 744.786C1008.01 740.758 1008.01 734.948 1006.37 730.645C1005.46 728.278 1003.99 725.778 1001.93 723.123C1000.54 721.333 996.816 717.672 994.826 716.142C984.691 708.355 971.343 705.111 959.219 707.49C957.134 707.899 953.62 708.941 952.03 709.623C949.141 710.86 946.038 713.331 944.265 715.805ZM1029.04 685.377C1020.99 695.44 1016.59 708.413 1016.78 721.57C1016.88 727.981 1019 739.602 1021.77 748.762C1024.06 756.387 1027.69 764.687 1031.35 770.704C1032.15 772.009 1033.31 773.937 1033.94 774.99C1037.67 781.253 1044.02 784.968 1051.48 785.258C1054.89 785.39 1058.93 784.36 1062.02 782.57C1063.5 781.712 1063.83 781.439 1066.11 779.157C1070.71 774.558 1072.91 770.968 1078.28 759.277C1082.25 750.624 1084.03 747.24 1086.35 743.946C1087.77 741.928 1091.48 737.418 1092.82 736.074C1094.36 734.535 1097.24 732.278 1099.45 730.876C1103.4 728.369 1105.61 727.336 1120.17 721.201C1126.5 718.533 1128.88 717.068 1132.06 713.88C1135.56 710.388 1137.74 706.485 1138.56 702.286C1139.06 699.705 1138.84 696.336 1138 693.82C1136.7 689.893 1132.2 685.045 1126.95 681.92C1121.5 678.674 1112.72 675.36 1105.1 673.675C1083.51 668.9 1070.74 667.78 1058.37 669.575C1049.48 670.865 1043.59 673.073 1037.48 677.405C1035.41 678.867 1030.65 683.37 1029.04 685.377Z" fill="#FFD80C"/>
</svg>
