<svg width="29" height="28" viewBox="0 0 29 28" fill="none" xmlns="http://www.w3.org/2000/svg">
<path d="M13.7015 1.16513C13.9493 0.402396 15.0284 0.402396 15.2762 1.16513L18.0204 9.61079C18.1312 9.95189 18.4491 10.1828 18.8077 10.1828H27.688C28.49 10.1828 28.8234 11.2091 28.1746 11.6805L20.9903 16.9002C20.7002 17.111 20.5787 17.4847 20.6896 17.8258L23.4337 26.2714C23.6816 27.0342 22.8086 27.6684 22.1598 27.197L14.9755 21.9773C14.6853 21.7665 14.2924 21.7665 14.0022 21.9773L6.81791 27.197C6.1691 27.6684 5.29612 27.0342 5.54395 26.2714L8.28811 17.8258C8.39894 17.4847 8.27753 17.111 7.98737 16.9002L0.803054 11.6805C0.154237 11.2091 0.487685 10.1828 1.28967 10.1828H10.17C10.5286 10.1828 10.8465 9.95189 10.9573 9.61079L13.7015 1.16513Z" fill="#354E99"/>
</svg>
